<svg width="26" height="26" viewBox="0 0 26 26" fill="none" xmlns="http://www.w3.org/2000/svg">
<path d="M3.25 2.16667V20.0417C3.25 22.1322 4.70996 23.8333 6.5 23.8333H20.5833C22.3734 23.8333 23.8333 22.1322 23.8333 20.0417C23.8333 17.9512 22.3734 16.25 20.5833 16.25V2.16667H17.3333C17.3333 2.76335 16.8467 3.25001 16.25 3.25001C15.6533 3.25001 15.1667 2.76335 15.1667 2.16667H13C13 2.76335 12.5133 3.25001 11.9167 3.25001C11.32 3.25001 10.8333 2.76335 10.8333 2.16667H8.66667C8.66667 2.76335 8.18001 3.25001 7.58333 3.25001C6.98665 3.25001 6.5 2.76335 6.5 2.16667H3.25ZM6.5 6.50001H17.3333V8.66667H6.5V6.50001ZM6.5 10.8333H14.0833V13H6.5V10.8333ZM6.5 18.4167C7.07552 18.4167 7.58333 19.1742 7.58333 20.0417C7.58333 20.9092 7.07552 21.6667 6.5 21.6667C5.92448 21.6667 5.41667 20.9092 5.41667 20.0417C5.41667 19.1742 5.92448 18.4167 6.5 18.4167ZM9.42415 18.4167H20.5833C21.1589 18.4167 21.6667 19.1742 21.6667 20.0417C21.6667 20.9092 21.1589 21.6667 20.5833 21.6667H9.42415C9.62728 21.1716 9.75 20.6257 9.75 20.0417C9.75 19.4577 9.62728 18.9118 9.42415 18.4167Z" fill="#FA7E50"/>
</svg>
