<svg width="22" height="22" viewBox="0 0 22 22" fill="none" xmlns="http://www.w3.org/2000/svg">
<path d="M10.0833 0.916672C8.06734 0.916672 6.41663 2.56739 6.41663 4.58334V16.0417C6.41663 18.8167 8.68323 21.0833 11.4583 21.0833C14.2334 21.0833 16.5 18.8167 16.5 16.0417V5.5H14.6666V16.0417C14.6666 17.8249 13.2415 19.25 11.4583 19.25C9.67509 19.25 8.24996 17.8249 8.24996 16.0417V4.58334C8.24996 3.55925 9.0592 2.75001 10.0833 2.75001C11.1074 2.75001 11.9166 3.55925 11.9166 4.58334V14.2083C11.9166 14.4697 11.7197 14.6667 11.4583 14.6667C11.1969 14.6667 11 14.4697 11 14.2083V5.5H9.16663V14.2083C9.16663 15.4616 10.205 16.5 11.4583 16.5C12.7115 16.5 13.75 15.4616 13.75 14.2083V4.58334C13.75 2.56739 12.0992 0.916672 10.0833 0.916672Z" fill="#9360F4"/>
</svg>
