<svg width="24" height="24" viewBox="0 0 24 24" fill="none" xmlns="http://www.w3.org/2000/svg">
<g clip-path="url(#clip0_1_34)">
<path d="M20.7322 2.16452H3.2678C1.72683 2.16452 0.47757 3.41378 0.47757 4.95476V21.2098C0.47757 22.7507 1.72683 24 3.2678 24H20.7322C22.2732 24 23.5224 22.7507 23.5224 21.2098V4.95476C23.5224 3.4137 22.2732 2.16452 20.7322 2.16452Z" fill="white"/>
<path d="M23.5224 7.40706V4.02626C23.5224 2.48528 22.2732 1.23602 20.7322 1.23602H3.2678C1.72683 1.23602 0.47757 2.48528 0.47757 4.02626V7.40706H23.5224Z" fill="#E8754A"/>
<path d="M23.5224 8.03782V4.95475C23.5224 3.41378 22.2732 2.16452 20.7322 2.16452H3.2678C1.72683 2.16452 0.47757 3.41378 0.47757 4.95475V8.03782H23.5224Z" fill="#FB926B"/>
<path d="M5.04794 3.66304C4.5101 3.66304 4.0741 4.09904 4.0741 4.63688C4.0741 5.17472 4.5101 5.61064 5.04794 5.61064C5.58578 5.61064 6.0217 5.17464 6.0217 4.63688C6.02178 4.09904 5.58578 3.66304 5.04794 3.66304Z" fill="#E8754A"/>
<path d="M5.04793 0C4.76024 0 4.52695 0.233289 4.52695 0.520987V4.58014C4.52695 4.86792 4.76024 5.10113 5.04793 5.10113C5.33563 5.10113 5.56892 4.86792 5.56892 4.58014V0.520987C5.56892 0.233289 5.33571 0 5.04793 0V0Z" fill="#4D5C7D"/>
<path d="M9.68264 3.66304C9.1448 3.66304 8.7088 4.09904 8.7088 4.63688C8.7088 5.17472 9.1448 5.61064 9.68264 5.61064C10.2205 5.61064 10.6564 5.17464 10.6564 4.63688C10.6565 4.09904 10.2205 3.66304 9.68264 3.66304Z" fill="#E8754A"/>
<path d="M9.68264 0C9.39494 0 9.16165 0.233289 9.16165 0.520987V4.58014C9.16165 4.86792 9.39494 5.10113 9.68264 5.10113C9.97034 5.10113 10.2036 4.86792 10.2036 4.58014V0.520987C10.2036 0.233289 9.97034 0 9.68264 0V0Z" fill="#4D5C7D"/>
<path d="M14.3173 3.66304C13.7795 3.66304 13.3435 4.09904 13.3435 4.63688C13.3435 5.17472 13.7795 5.61064 14.3173 5.61064C14.8552 5.61064 15.2911 5.17464 15.2911 4.63688C15.2911 4.09904 14.8552 3.66304 14.3173 3.66304Z" fill="#E8754A"/>
<path d="M14.3174 0C14.0297 0 13.7964 0.233289 13.7964 0.520987V4.58014C13.7964 4.86792 14.0297 5.10113 14.3174 5.10113C14.6051 5.10113 14.8384 4.86792 14.8384 4.58014V0.520987C14.8384 0.233289 14.6051 0 14.3174 0V0Z" fill="#4D5C7D"/>
<path d="M18.9521 3.66304C18.4142 3.66304 17.9782 4.09904 17.9782 4.63688C17.9782 5.17472 18.4142 5.61064 18.9521 5.61064C19.4899 5.61064 19.9258 5.17464 19.9258 4.63688C19.9258 4.09904 19.4898 3.66304 18.9521 3.66304Z" fill="#E8754A"/>
<path d="M18.952 0C18.6643 0 18.431 0.233289 18.431 0.520987V4.58014C18.431 4.86792 18.6643 5.10113 18.952 5.10113C19.2397 5.10113 19.473 4.86792 19.473 4.58014V0.520987C19.473 0.233289 19.2398 0 18.952 0V0Z" fill="#4D5C7D"/>
<path d="M8.98062 11.8929H11.0868V13.9991H8.98062V11.8929Z" fill="#E8754A"/>
<path d="M12.9132 11.8929H15.0194V13.9991H12.9132V11.8929Z" fill="#E8754A"/>
<path d="M16.8459 11.8929H18.9521V13.9991H16.8459V11.8929Z" fill="#E8754A"/>
<path d="M5.04794 15.1947H7.15412V17.3008H5.04794V15.1947Z" fill="#E8754A"/>
<path d="M8.98062 15.1947H11.0868V17.3008H8.98062V15.1947Z" fill="#E8754A"/>
<path d="M12.9132 15.1947H15.0194V17.3008H12.9132V15.1947Z" fill="#E8754A"/>
<path d="M16.8459 15.1947H18.9521V17.3008H16.8459V15.1947Z" fill="#E8754A"/>
<path d="M5.04794 18.4964H7.15412V20.6026H5.04794V18.4964Z" fill="#E8754A"/>
<path d="M8.98062 18.4964H11.0868V20.6026H8.98062V18.4964Z" fill="#E8754A"/>
<path d="M12.9132 18.4964H15.0194V20.6026H12.9132V18.4964Z" fill="#E8754A"/>
</g>
<defs>
<clipPath id="clip0_1_34">
<rect width="24" height="24" fill="white"/>
</clipPath>
</defs>
</svg>
