<svg width="22" height="22" viewBox="0 0 22 22" fill="none" xmlns="http://www.w3.org/2000/svg">
<path d="M8.25004 1.83334L6.41671 3.66667H3.66671C2.65694 3.66667 1.83337 4.49024 1.83337 5.5V16.5C1.83337 17.5098 2.65694 18.3333 3.66671 18.3333H18.3334C19.3431 18.3333 20.1667 17.5098 20.1667 16.5V5.5C20.1667 4.49024 19.3431 3.66667 18.3334 3.66667H15.5834L13.75 1.83334H8.25004ZM11 6.41667C13.5674 6.41667 15.5834 8.43262 15.5834 11C15.5834 13.5674 13.5674 15.5833 11 15.5833C8.43266 15.5833 6.41671 13.5674 6.41671 11C6.41671 8.43262 8.43266 6.41667 11 6.41667ZM11 7.79167C9.22758 7.79167 7.79171 9.22754 7.79171 11C7.79171 12.7725 9.22758 14.2083 11 14.2083C12.7725 14.2083 14.2084 12.7725 14.2084 11C14.2084 9.22754 12.7725 7.79167 11 7.79167Z" fill="#46BA65"/>
</svg>
