<svg width="24" height="24" viewBox="0 0 24 24" fill="none" xmlns="http://www.w3.org/2000/svg">
<path d="M21.375 7.125H4.875C4.04657 7.125 3.375 7.79657 3.375 8.625V21.375C3.375 22.2034 4.04657 22.875 4.875 22.875H21.375C22.2034 22.875 22.875 22.2034 22.875 21.375V8.625C22.875 7.79657 22.2034 7.125 21.375 7.125Z" fill="#E9764B"/>
<path d="M20.625 4.875V19.125C20.625 19.5228 20.467 19.9044 20.1857 20.1857C19.9044 20.467 19.5228 20.625 19.125 20.625H7.125C6.72718 20.625 6.34564 20.467 6.06434 20.1857C5.78304 19.9044 5.625 19.5228 5.625 19.125V2.625C5.625 2.22718 5.78304 1.84564 6.06434 1.56434C6.34564 1.28304 6.72718 1.125 7.125 1.125H16.875L20.625 4.875Z" fill="#E9EEF2"/>
<path d="M19.875 22.875H2.625C2.22718 22.875 1.84564 22.717 1.56434 22.4357C1.28304 22.1544 1.125 21.7728 1.125 21.375V6.375C1.125 5.97718 1.28304 5.59564 1.56434 5.31434C1.84564 5.03304 2.22718 4.875 2.625 4.875H7.125C7.52282 4.875 7.90436 5.03304 8.18566 5.31434C8.46696 5.59564 8.625 5.97718 8.625 6.375V9.375H16.875C17.2728 9.375 17.6544 9.53304 17.9357 9.81434C18.217 10.0956 18.375 10.4772 18.375 10.875V21.375C18.375 21.7728 18.533 22.1544 18.8143 22.4357C19.0956 22.717 19.4772 22.875 19.875 22.875Z" fill="#FB9873"/>
<path d="M18.375 7.5H13.125C13.0255 7.5 12.9302 7.46049 12.8598 7.39017C12.7895 7.31984 12.75 7.22446 12.75 7.125C12.75 7.02554 12.7895 6.93016 12.8598 6.85983C12.9302 6.78951 13.0255 6.75 13.125 6.75H18.375C18.4745 6.75 18.5698 6.78951 18.6402 6.85983C18.7105 6.93016 18.75 7.02554 18.75 7.125C18.75 7.22446 18.7105 7.31984 18.6402 7.39017C18.5698 7.46049 18.4745 7.5 18.375 7.5Z" fill="#C3C6C7"/>
<path d="M13.125 5.25H10.5C10.4005 5.25 10.3052 5.21049 10.2348 5.14016C10.1645 5.06984 10.125 4.97446 10.125 4.875C10.125 4.77554 10.1645 4.68016 10.2348 4.60984C10.3052 4.53951 10.4005 4.5 10.5 4.5H13.125C13.2245 4.5 13.3198 4.53951 13.3902 4.60984C13.4605 4.68016 13.5 4.77554 13.5 4.875C13.5 4.97446 13.4605 5.06984 13.3902 5.14016C13.3198 5.21049 13.2245 5.25 13.125 5.25Z" fill="#C3C6C7"/>
<path d="M20.625 4.875H18.375C17.9772 4.875 17.5956 4.71696 17.3143 4.43566C17.033 4.15436 16.875 3.77282 16.875 3.375V1.125L20.625 4.875Z" fill="#C3C6C7"/>
<path d="M11.625 7.5H10.875C10.7755 7.5 10.6802 7.46049 10.6098 7.39017C10.5395 7.31984 10.5 7.22446 10.5 7.125C10.5 7.02554 10.5395 6.93016 10.6098 6.85983C10.6802 6.78951 10.7755 6.75 10.875 6.75H11.625C11.7245 6.75 11.8198 6.78951 11.8902 6.85983C11.9605 6.93016 12 7.02554 12 7.125C12 7.22446 11.9605 7.31984 11.8902 7.39017C11.8198 7.46049 11.7245 7.5 11.625 7.5Z" fill="#C3C6C7"/>
<path d="M8.6662 19.8748L11.2581 16.8461L9.75815 16.8626L9.7087 12.3629L7.45884 12.3876L7.5083 16.8873L6.00839 16.9038L8.6662 19.8748Z" fill="white"/>
</svg>
