<svg width="24" height="24" viewBox="0 0 24 24" fill="none" xmlns="http://www.w3.org/2000/svg">
<g clip-path="url(#clip0_1_203)">
<path d="M15.6844 9.55313C14.5781 9.55313 13.9313 10.6078 13.9313 12.0234C13.9313 13.4531 14.6063 14.4469 15.6938 14.4469C16.8141 14.4469 17.4469 13.3922 17.4469 11.9766C17.4469 10.6687 16.8234 9.55313 15.6844 9.55313ZM15.6844 9.55313C14.5781 9.55313 13.9313 10.6078 13.9313 12.0234C13.9313 13.4531 14.6063 14.4469 15.6938 14.4469C16.8141 14.4469 17.4469 13.3922 17.4469 11.9766C17.4469 10.6687 16.8234 9.55313 15.6844 9.55313ZM12 0C5.4 0 0 5.4 0 12C0 18.6 5.4 24 12 24C18.6 24 24 18.6 24 12C24 5.4 18.6 0 12 0ZM11.2453 15.3C10.7297 15.4781 9.76875 15.7219 8.80781 15.7219C7.47656 15.7219 6.51563 15.3844 5.85469 14.7375C5.18438 14.1141 4.81406 13.1531 4.82344 12.0844C4.8375 9.67031 6.6 8.27813 8.98594 8.27813C9.92344 8.27813 10.6453 8.47031 11.0063 8.63906L10.6547 9.96094C10.2609 9.77813 9.75469 9.64688 8.9625 9.64688C7.58438 9.64688 6.55313 10.4297 6.55313 12C6.55313 13.5 7.48594 14.3859 8.84531 14.3859C9.21563 14.3859 9.52969 14.3391 9.64688 14.2781V12.7547H8.53125V11.4703H11.2453V15.3ZM15.6141 15.7547C13.4531 15.7547 12.1922 14.1234 12.1922 12.0609C12.1922 9.87656 13.5844 8.24531 15.7313 8.24531C17.9625 8.24531 19.1859 9.91406 19.1859 11.9297C19.1859 14.3156 17.7375 15.7547 15.6141 15.7547ZM15.6844 9.55313C14.5781 9.55313 13.9313 10.6078 13.9313 12.0234C13.9313 13.4531 14.6063 14.4469 15.6938 14.4469C16.8141 14.4469 17.4469 13.3922 17.4469 11.9766C17.4469 10.6687 16.8234 9.55313 15.6844 9.55313Z" fill="#B7B7BF"/>
</g>
<defs>
<clipPath id="clip0_1_203">
<rect width="24" height="24" fill="white"/>
</clipPath>
</defs>
</svg>
