<svg width="26" height="26" viewBox="0 0 26 26" fill="none" xmlns="http://www.w3.org/2000/svg">
<path d="M11.9167 2.22168C9.74154 2.4375 7.7526 3.30078 6.14876 4.61686L7.69336 6.16146C8.89095 5.23047 10.3382 4.60417 11.9167 4.40951V2.22168ZM14.0833 2.22168V4.40951C18.3532 4.94694 21.6667 8.5905 21.6667 13C21.6667 17.4137 18.3532 21.0573 14.0833 21.5947V23.7826C19.5508 23.2324 23.8333 18.6113 23.8333 13C23.8333 7.3929 19.5508 2.76758 14.0833 2.22168ZM4.61686 6.14876C3.30078 7.7526 2.4375 9.74154 2.22168 11.9167H4.40951C4.60417 10.3382 5.23047 8.89095 6.16146 7.69336L4.61686 6.14876ZM17.6507 8.98405L11.9167 14.7181L9.43262 12.234L7.90072 13.766L11.9167 17.7819L19.1826 10.516L17.6507 8.98405ZM2.22168 14.0833C2.4375 16.2585 3.30078 18.2474 4.61686 19.8512L6.16146 18.3024C5.23047 17.1048 4.6084 15.6618 4.40951 14.0833H2.22168ZM7.69336 19.8385L6.14876 21.3831C7.7526 22.6992 9.7373 23.5625 11.9167 23.7783V21.5947C10.334 21.3958 8.89095 20.7695 7.69336 19.8385Z" fill="#FA7E50"/>
</svg>
