<svg width="20" height="20" viewBox="0 0 20 20" fill="none" xmlns="http://www.w3.org/2000/svg">
<path d="M6.0607 0C4.39303 0 3.02885 1.36418 3.02885 3.02885V8.33233H0.757212C0.300481 8.33233 0 8.71094 0 9.08954V13.6358C0 14.0144 0.300481 14.393 0.757212 14.393H3.02885V16.6677C3.02885 18.3323 4.39303 19.6965 6.0607 19.6965H15.1502C16.8179 19.6965 18.1821 18.3323 18.1821 16.6677V6.0607C18.1821 5.22536 17.4339 4.45913 16.1448 3.17308C15.9195 3.02284 15.7572 2.80349 15.5288 2.65024C15.3786 2.42488 15.1593 2.26262 15.009 2.03726C13.723 0.748197 12.9567 0 12.1214 0H6.0607ZM6.0607 1.51442H11.6016C12.1304 1.66466 12.1214 2.35276 12.1214 2.95974V5.23137C12.1214 5.6881 12.4219 5.98858 12.8786 5.98858H15.1502C15.9105 5.98858 16.6677 5.98858 16.6677 6.74579V16.5956C16.6677 17.4309 15.9856 18.11 15.1502 18.11H6.0607C5.22536 18.11 4.54627 17.4309 4.54627 16.5956V14.393H12.8786C13.3353 14.393 13.6358 14.0144 13.6358 13.6358V9.08954C13.6358 8.71094 13.3353 8.33233 12.8786 8.33233H4.54627V3.02885C4.54627 2.19651 5.22536 1.51442 6.0607 1.51442ZM2.13041 9.08954C2.33774 9.08053 2.56611 9.08954 2.79447 9.08954C3.32332 9.08954 3.79507 9.24279 4.09555 9.47115C4.39603 9.69652 4.54627 10.0781 4.54627 10.5349C4.46815 10.9916 4.39603 11.3702 4.09555 11.6707C3.79507 11.9742 3.32332 12.1214 2.79447 12.1214H2.65024V13.5667C2.65024 13.6418 2.58714 13.7079 2.50901 13.7079H1.58654C1.58654 13.6298 1.51442 13.5667 1.51442 13.5667V9.32692C1.51442 9.2518 1.58654 9.23978 1.58654 9.16166C1.73678 9.1226 1.92308 9.09856 2.13041 9.08954ZM5.3726 9.08954H6.58053C7.33774 9.08954 7.88462 9.23978 8.26322 9.54026C8.71695 9.91887 8.94832 10.5349 8.94832 11.2921C8.94832 12.2776 8.5637 12.8125 8.26322 13.116C7.88462 13.4946 7.20252 13.7079 6.36719 13.7079C5.91346 13.7079 5.52584 13.7139 5.3726 13.6358C5.3726 13.6358 5.30348 13.5727 5.30348 13.4946V9.23377C5.30348 9.15565 5.3726 9.16767 5.3726 9.08954ZM9.91887 9.08954H12.2626C12.3407 9.08954 12.4279 9.15565 12.4279 9.23377V9.99099C12.4279 10.0661 12.3407 10.1562 12.2626 10.1562H10.9135V10.9135H12.1935C12.2686 10.9135 12.3588 10.9796 12.3588 11.0547V11.8149C12.3588 11.89 12.2686 11.9802 12.1935 11.9802H10.9135V13.5667C10.9135 13.6418 10.8263 13.7079 10.7482 13.7079H9.91887C9.84375 13.7079 9.77764 13.6418 9.77764 13.5667V9.23377C9.77764 9.15565 9.84375 9.08954 9.91887 9.08954ZM2.58113 10.0841V11.1268H2.72236C3.10096 11.1268 3.33834 10.9135 3.33834 10.5349C3.41647 10.1563 3.09495 10.0841 2.79447 10.0841H2.58113ZM6.36719 10.0841V12.7374H6.51142C6.89002 12.7374 7.1875 12.6562 7.33774 12.4279C7.56611 12.2025 7.64723 11.8179 7.64723 11.3642C7.79748 10.5288 7.43389 10.0841 6.67668 10.0841H6.36719Z" fill="#EC4242"/>
</svg>
