<svg width="24" height="24" viewBox="0 0 24 24" fill="none" xmlns="http://www.w3.org/2000/svg">
<g clip-path="url(#clip0_1_217)">
<path d="M3.51471 3.51471C5.78119 1.24823 8.79474 0 12 0C15.2053 0 18.2188 1.24823 20.4853 3.51471C22.7518 5.78119 24 8.79474 24 12C24 15.2053 22.7518 18.2188 20.4853 20.4853C18.2188 22.7518 15.2053 24 12 24C8.79474 24 5.78119 22.7518 3.51471 20.4853C1.24823 18.2188 0 15.2053 0 12C0 8.79474 1.24823 5.78119 3.51471 3.51471ZM12 22.125C17.5829 22.125 22.125 17.5829 22.125 12C22.125 6.41711 17.5829 1.875 12 1.875C6.41711 1.875 1.875 6.41711 1.875 12C1.875 17.5829 6.41711 22.125 12 22.125ZM11.0625 11.0616H6.84375V12.9366H11.0625V17.1553H12.9375V12.9366H17.1562V11.0616H12.9375V6.84283H11.0625V11.0616Z" fill="url(#paint0_linear_1_217)"/>
</g>
<defs>
<linearGradient id="paint0_linear_1_217" x1="12" y1="0" x2="12" y2="24" gradientUnits="userSpaceOnUse">
<stop stop-color="#FFA07D"/>
<stop offset="1" stop-color="#FF3C5F"/>
</linearGradient>
<clipPath id="clip0_1_217">
<rect width="24" height="24" fill="white" transform="matrix(-1 0 0 1 24 0)"/>
</clipPath>
</defs>
</svg>
