<svg width="24" height="24" viewBox="0 0 24 24" fill="none" xmlns="http://www.w3.org/2000/svg">
<g clip-path="url(#clip0_1_125)">
<path d="M24 3.44789V18.352H7.15428L4.39366 18.0845L1.64935 18.352H0.685826C0.30709 18.352 1.52588e-05 18.045 1.52588e-05 17.6662V3.44789L12.139 2.80216L24 3.44789Z" fill="#DDEAFB"/>
<path d="M22.8531 3.00362V18.352H24V3.44789L22.8531 3.00362Z" fill="#CBE2FF"/>
<path d="M21.7063 1.5728L22.1212 2.51034L21.7063 3.44789H1.52588e-05V2.25861C1.52588e-05 1.87983 0.30709 1.5728 0.685826 1.5728H21.7063Z" fill="#0473CE"/>
<path d="M24 2.25861V3.44789H21.7063V1.5728H23.3142C23.6929 1.5728 24 1.87983 24 2.25861Z" fill="#FE646F"/>
<path d="M23.3142 1.5728H22.1673C22.5461 1.5728 22.8531 1.87987 22.8531 2.25866V3.44789H24V2.25861C24 1.87983 23.6929 1.5728 23.3142 1.5728Z" fill="#FD4755"/>
<path d="M7.15414 5.34713V10.8623L4.39366 11.2113L1.64911 10.8623V5.34713C1.64911 5.18295 1.78287 5.04967 1.94706 5.04967H6.85668C7.02086 5.04967 7.15414 5.18295 7.15414 5.34713Z" fill="#528FD8"/>
<path d="M7.15414 10.8623V13.06C7.15414 13.2551 6.99623 13.4134 6.80114 13.4134H2.00259C1.8075 13.4134 1.64911 13.2551 1.64911 13.06V10.8623H7.15414Z" fill="#FFF9DF"/>
<path d="M7.14614 18.352H1.6412V15.1494C1.6412 14.985 1.77448 14.8517 1.93891 14.8517H6.84839C7.01281 14.8517 7.14609 14.985 7.14609 15.1494V18.352H7.14614Z" fill="#A274BF"/>
<path d="M14.7781 5.34713V7.71671L12.0259 8.13046L9.27359 7.71671V5.34713C9.27359 5.18295 9.40687 5.04967 9.57106 5.04967H14.4807C14.6449 5.04967 14.7781 5.18295 14.7781 5.34713Z" fill="#A274BF"/>
<path d="M14.7781 12.085V14.4546L12.1391 14.7338L9.27359 14.4546V12.085C9.27359 11.9203 9.40687 11.787 9.57106 11.787H14.4807C14.6449 11.787 14.7781 11.9203 14.7781 12.085Z" fill="#82AEE3"/>
<path d="M22.4031 5.34713V7.71671L19.6475 8.13046L16.898 7.71671V5.34713C16.898 5.18295 17.0313 5.04967 17.196 5.04967H22.1051C22.2698 5.04967 22.4031 5.18295 22.4031 5.34713Z" fill="#FE646F"/>
<path d="M14.7781 7.71671V9.91437C14.7781 10.1095 14.6202 10.2679 14.4251 10.2679H9.62659C9.4315 10.2679 9.27359 10.1095 9.27359 9.91437V7.71671H14.7781Z" fill="#FFF9DF"/>
<path d="M22.4031 7.71671V9.91437C22.4031 10.1095 22.2447 10.2679 22.0496 10.2679H17.2511C17.056 10.2679 16.8981 10.1095 16.8981 9.91437V7.71671H22.4031Z" fill="#FFF9DF"/>
<path d="M14.7781 14.4546V16.6522C14.7781 16.8473 14.6202 17.0052 14.4251 17.0052H9.62659C9.4315 17.0052 9.27359 16.8473 9.27359 16.6522V14.4546H14.7781Z" fill="#FFF9DF"/>
<path d="M11.7769 16.092H10.8187C10.6186 16.092 10.4565 15.9298 10.4565 15.7298C10.4565 15.5298 10.6186 15.3676 10.8187 15.3676H11.7769C11.9769 15.3676 12.139 15.5298 12.139 15.7298C12.139 15.9298 11.9769 16.092 11.7769 16.092Z" fill="#FFD15B"/>
<path d="M24 13.947V21.3373C24 21.9395 23.5123 22.4272 22.9101 22.4272H12.8668C12.2646 22.4272 11.7769 21.9395 11.7769 21.3373V15.545C11.7769 14.9433 12.2646 14.4551 12.8668 14.4551H17.5818C18.0396 14.4551 18.4481 14.1697 18.6056 13.7399L18.6664 13.5728C18.8238 13.143 19.2324 12.8571 19.6902 12.8571H22.9101C23.5123 12.8571 24 13.3449 24 13.947Z" fill="#FB9873"/>
<path d="M17.7722 20.9273H13.5647C13.4349 20.9273 13.3296 20.822 13.3296 20.6922V19.649C13.3296 19.5191 13.4349 19.4138 13.5647 19.4138H17.7722C17.902 19.4138 18.0073 19.5191 18.0073 19.649V20.6922C18.0073 20.822 17.902 20.9273 17.7722 20.9273Z" fill="#FFF9DF"/>
<path d="M17.7722 19.4138H16.5816C16.7114 19.4138 16.8167 19.5191 16.8167 19.649V20.6922C16.8167 20.822 16.7114 20.9273 16.5816 20.9273H17.7722C17.902 20.9273 18.0073 20.822 18.0073 20.6922V19.649C18.0073 19.5191 17.902 19.4138 17.7722 19.4138Z" fill="#FFF0AD"/>
<path d="M22.9101 12.8571H21.6277C22.0277 12.8571 22.3519 13.1814 22.3519 13.5813V21.7031C22.3519 22.103 22.0277 22.4272 21.6277 22.4272H22.9101C23.5123 22.4272 24 21.9395 24 21.3373V13.947C24 13.3449 23.5123 12.8571 22.9101 12.8571Z" fill="#FF8051"/>
<path d="M5.65725 12.5238H3.19457C2.99455 12.5238 2.8324 12.3616 2.8324 12.1616C2.8324 11.9616 2.99455 11.7994 3.19457 11.7994H5.65725C5.85727 11.7994 6.01942 11.9616 6.01942 12.1616C6.01942 12.3616 5.85727 12.5238 5.65725 12.5238Z" fill="#FFD15B"/>
<path d="M13.2813 9.3544H10.8187C10.6186 9.3544 10.4565 9.19224 10.4565 8.99222C10.4565 8.79221 10.6186 8.63005 10.8187 8.63005H13.2813C13.4814 8.63005 13.6435 8.79221 13.6435 8.99222C13.6435 9.19224 13.4814 9.3544 13.2813 9.3544Z" fill="#FFD15B"/>
<path d="M20.9059 9.3544H18.4433C18.2433 9.3544 18.0811 9.19224 18.0811 8.99222C18.0811 8.79221 18.2433 8.63005 18.4433 8.63005H20.906C21.106 8.63005 21.2682 8.79221 21.2682 8.99222C21.2682 9.19224 21.1059 9.3544 20.9059 9.3544Z" fill="#FFD15B"/>
<path d="M22.3516 14.6978H20.0096C19.8096 14.6978 19.6475 14.5356 19.6475 14.3356C19.6475 14.1356 19.8096 13.9734 20.0096 13.9734H22.3516C22.5516 13.9734 22.7138 14.1356 22.7138 14.3356C22.7138 14.5356 22.5516 14.6978 22.3516 14.6978Z" fill="#528FD8"/>
</g>
<defs>
<clipPath id="clip0_1_125">
<rect width="24" height="24" fill="white"/>
</clipPath>
</defs>
</svg>
