<svg width="24" height="24" viewBox="0 0 24 24" fill="none" xmlns="http://www.w3.org/2000/svg">
<path d="M5.78959 0C4.87551 0 4.13441 0.741091 4.13441 1.65518V19.0311L15.7243 19.0344V21.842C15.7243 22.9228 16.5142 23.8878 17.5897 23.9904C18.824 24.108 19.8622 23.1409 19.8622 21.931V14.0689V4.13794V2.06897C19.8622 0.926483 20.7883 0 21.9312 0H5.78959Z" fill="#E6E7E8"/>
<path d="M5.78959 0C4.87551 0 4.13441 0.741091 4.13441 1.65518V19.0311L15.7243 19.0344V21.842C15.7243 22.9228 16.5142 23.8878 17.5897 23.9904C18.824 24.108 19.8622 23.1409 19.8622 21.931V14.0689V4.13794V2.06897C19.8622 0.926483 20.7883 0 21.9312 0H5.78959Z" fill="white"/>
<path d="M21.931 0C20.7885 0 19.8621 0.926483 19.8621 2.06897V4.96925H23.1687C23.628 4.96925 24 4.59684 24 4.13794V2.06897C24 0.926483 23.0735 0 21.931 0Z" fill="#B0B6BB"/>
<path d="M17.7931 23.9999C16.6506 23.9999 15.7241 23.0735 15.7241 21.931V19.0344L0.831307 19.0307C0.371976 19.0307 0 19.4031 0 19.862V21.931C0 23.0735 0.926483 23.9999 2.06897 23.9999H17.7931Z" fill="#B0B6BB"/>
<path d="M14.4828 2.89657H9.51726C9.28886 2.89657 9.10347 2.7116 9.10347 2.48277C9.10347 2.25394 9.28886 2.06898 9.51726 2.06898H14.4828C14.7112 2.06898 14.8966 2.25394 14.8966 2.48277C14.8966 2.7116 14.7112 2.89657 14.4828 2.89657Z" fill="#B0B6BB"/>
<path d="M17.3793 5.37932H6.6207C6.3923 5.37932 6.20691 5.19436 6.20691 4.96553C6.20691 4.7367 6.3923 4.55173 6.6207 4.55173H17.3793C17.6077 4.55173 17.7931 4.7367 17.7931 4.96553C17.7931 5.19436 17.6077 5.37932 17.3793 5.37932Z" fill="#B0B6BB"/>
<path d="M17.3793 7.86203H6.6207C6.3923 7.86203 6.20691 7.67707 6.20691 7.44824C6.20691 7.21941 6.3923 7.03445 6.6207 7.03445H17.3793C17.6077 7.03445 17.7931 7.21941 17.7931 7.44824C17.7931 7.67707 17.6077 7.86203 17.3793 7.86203Z" fill="#B0B6BB"/>
<path d="M11.5733 10.3448H6.62066C6.39226 10.3448 6.20686 10.1598 6.20686 9.931C6.20686 9.70217 6.39226 9.5172 6.62066 9.5172H11.5734C11.8018 9.5172 11.9872 9.70217 11.9872 9.931C11.9871 10.1598 11.8017 10.3448 11.5733 10.3448Z" fill="#B0B6BB"/>
<path d="M10.0141 12.8276H6.62061C6.39221 12.8276 6.20682 12.6426 6.20682 12.4138C6.20682 12.1849 6.39221 12 6.62061 12H10.0141C10.2425 12 10.4279 12.1849 10.4279 12.4138C10.4279 12.6426 10.2425 12.8276 10.0141 12.8276Z" fill="#B0B6BB"/>
<path d="M10.2755 15.3103H6.6205C6.3921 15.3103 6.20671 15.1254 6.20671 14.8965C6.20671 14.6677 6.3921 14.4827 6.6205 14.4827H10.2755C10.5039 14.4827 10.6893 14.6677 10.6893 14.8965C10.6893 15.1254 10.504 15.3103 10.2755 15.3103Z" fill="#B0B6BB"/>
<path d="M18.2069 13.2414C18.2069 10.956 16.3544 9.10342 14.069 9.10342C11.7836 9.10342 9.93102 10.956 9.93102 13.2414C9.93102 15.5268 11.7836 17.3793 14.069 17.3793C16.3544 17.3793 18.2069 15.5267 18.2069 13.2414Z" fill="#FB9873"/>
<path d="M13.6552 15.7241C13.546 15.7241 13.4404 15.6811 13.3627 15.6029L11.7075 13.9477C11.5457 13.7859 11.5457 13.5244 11.7075 13.3626C11.8693 13.2008 12.1308 13.2008 12.2926 13.3626L13.5911 14.661L15.7937 11.3565C15.9207 11.1666 16.1773 11.1148 16.3676 11.2419C16.5575 11.3689 16.6088 11.6254 16.4822 11.8158L13.9995 15.5399C13.9308 15.643 13.819 15.71 13.6962 15.722C13.6821 15.7233 13.6688 15.7241 13.6552 15.7241Z" fill="white"/>
</svg>
