<svg width="28" height="28" viewBox="0 0 28 28" fill="none" xmlns="http://www.w3.org/2000/svg">
<path d="M10.7 3C6.45897 3 3 6.45897 3 10.7C3 14.941 6.45897 18.3999 10.7 18.3999C12.6207 18.3999 14.3781 17.6824 15.7316 16.5093L16.1999 16.9777V18.3999L22.7999 24.9999L24.9999 22.7999L18.3999 16.1999H16.9777L16.5093 15.7316C17.6824 14.3781 18.3999 12.6207 18.3999 10.7C18.3999 6.45897 14.941 3 10.7 3ZM10.7 5.19999C13.7507 5.19999 16.1999 7.6492 16.1999 10.7C16.1999 13.7507 13.7507 16.1999 10.7 16.1999C7.6492 16.1999 5.19999 13.7507 5.19999 10.7C5.19999 7.6492 7.6492 5.19999 10.7 5.19999Z" fill="#B7B7BF"/>
</svg>
