<svg width="24" height="24" viewBox="0 0 24 24" fill="none" xmlns="http://www.w3.org/2000/svg">
<g clip-path="url(#clip0_1_163)">
<path d="M22.4999 22.4999H1.49998C0.671174 22.4999 0 21.8287 0 20.9999V1.49998C0 0.671174 0.671174 0 1.49998 0H22.4999C23.3287 0 24.0001 0.671174 24.0001 1.49998V20.9999C24.0001 21.8287 23.3287 22.4999 22.4999 22.4999Z" fill="white"/>
<path d="M23.5001 23.5001H13.0001V20.4999C13.0001 19.6713 12.3287 19 11.5001 19H5.49998C4.67136 19 4 18.3288 4 17.5C4 16.6712 4.67136 16 5.49998 16H19.7501C21.8208 16 23.5001 17.6793 23.5001 19.75V23.5001Z" fill="#FB9873"/>
<path d="M21.75 24.0001H20.25V21.75C20.25 21.336 20.5861 20.9999 20.9999 20.9999C21.414 20.9999 21.75 21.336 21.75 21.75V24.0001Z" fill="#FF8051"/>
<path d="M21.8054 16.8481C21.3307 16.6297 20.8066 16.5 20.25 16.5H12.5138C13.3582 18.2708 15.1613 19.4999 17.2501 19.4999C19.1993 19.4999 20.9003 18.4297 21.8054 16.8481Z" fill="#FF8051"/>
<path d="M20.9999 14.2499C20.9999 16.321 19.321 18 17.2501 18C15.179 18 13.5 16.321 13.5 14.2499C13.5 12.179 15.179 10.5001 17.2501 10.5001C19.321 10.5001 20.9999 12.179 20.9999 14.2499Z" fill="#FFD8C9"/>
<path d="M17.2501 16.5C15.4396 16.5 13.9244 15.2092 13.5758 13.5C13.5263 13.7422 13.5 13.9935 13.5 14.2499C13.5 16.3178 15.1822 18 17.2501 18C19.3177 18 20.9999 16.3178 20.9999 14.2499C20.9999 13.9935 20.9737 13.7422 20.9243 13.5C20.5755 15.2092 19.0606 16.5 17.2501 16.5Z" fill="#FBC0AA"/>
<path d="M2.99997 5.99993H20.9999V7.49991H2.99997V5.99993Z" fill="#C7CCE1"/>
<path d="M2.99997 9.00008H13.5V10.5001H2.99997V9.00008Z" fill="#C7CCE1"/>
<path d="M2.99997 12H10.5001V13.5H2.99997V12Z" fill="#C7CCE1"/>
<path d="M2.99997 2.25006H4.49995V3.75005H2.99997V2.25006Z" fill="white"/>
<path d="M5.99991 2.25006H7.49989V3.75005H5.99991V2.25006Z" fill="white"/>
</g>
<defs>
<clipPath id="clip0_1_163">
<rect width="24" height="24" fill="white"/>
</clipPath>
</defs>
</svg>
