<svg width="24" height="24" viewBox="0 0 24 24" fill="none" xmlns="http://www.w3.org/2000/svg">
<path d="M19.5622 6.36586L14.0064 19.1476C13.8223 19.5711 13.3531 19.7544 12.9582 19.5569L7.00104 16.5768C6.60627 16.3794 6.43543 15.8759 6.61952 15.4523L12.1753 2.67057C12.3594 2.24707 12.8287 2.0638 13.2235 2.26128L19.1807 5.24133C19.5756 5.43882 19.7464 5.94236 19.5622 6.36586Z" fill="#7BC740"/>
<path d="M13.1436 13.6212C14.6137 13.6212 15.8055 12.4294 15.8055 10.9593C15.8055 9.48914 14.6137 8.29735 13.1436 8.29735C11.6734 8.29735 10.4816 9.48914 10.4816 10.9593C10.4816 12.4294 11.6734 13.6212 13.1436 13.6212Z" fill="#E0EBFC"/>
<path d="M14.4559 11.7801C14.2228 12.1312 13.8613 12.2957 13.4647 12.1485C13.4234 12.1331 13.4046 12.085 13.4232 12.0451L13.5625 11.7463C13.5785 11.7122 13.6167 11.6956 13.6531 11.7056C13.7966 11.745 13.9315 11.7269 14.0404 11.6368C14.0838 11.6008 14.0758 11.532 14.0247 11.5082L13.303 11.1716C13.2721 11.1572 13.2354 11.1652 13.2131 11.191C12.9588 11.4858 12.6685 11.7808 12.1382 11.5335C11.7156 11.3365 11.549 10.9203 11.6756 10.483C11.6859 10.4473 11.6684 10.4093 11.6346 10.3937L11.4405 10.3031C11.4023 10.2853 11.3859 10.24 11.4036 10.202L11.4466 10.1099C11.4644 10.0718 11.5097 10.0553 11.5477 10.0731L11.7377 10.1617C11.7714 10.1774 11.8119 10.1666 11.8325 10.1357C12.0495 9.80879 12.3819 9.66779 12.7838 9.7891C12.828 9.80241 12.8498 9.85247 12.8303 9.89429L12.6923 10.1903C12.677 10.2233 12.6405 10.2398 12.6049 10.2319C12.4953 10.2077 12.3788 10.2225 12.2806 10.2833C12.2286 10.3156 12.2318 10.3922 12.2873 10.4181L12.9814 10.7417C13.0126 10.7562 13.0496 10.748 13.0718 10.7217C13.3221 10.4257 13.6073 10.1328 14.1373 10.3799C14.5045 10.5512 14.7486 10.9583 14.6132 11.4323C14.603 11.4681 14.6204 11.5059 14.6541 11.5217L14.8484 11.6123C14.8866 11.6301 14.903 11.6753 14.8852 11.7134L14.8423 11.8055C14.8245 11.8436 14.7792 11.86 14.7411 11.8423L14.551 11.7537C14.5171 11.7377 14.4765 11.7488 14.4559 11.7801ZM12.7567 10.9168L12.1498 10.6338C12.1031 10.612 12.0471 10.6418 12.042 10.693C12.0252 10.8628 12.1041 11.0176 12.3059 11.1117C12.4926 11.1988 12.6393 11.1525 12.7718 11.0457C12.8159 11.0102 12.808 10.9408 12.7567 10.9168ZM13.5277 10.9962L14.1338 11.2789C14.184 11.3022 14.241 11.266 14.2424 11.2107C14.2472 11.0288 14.1424 10.8777 13.971 10.7978C13.7872 10.7122 13.6437 10.7602 13.5122 10.8677C13.4686 10.9034 13.4766 10.9724 13.5277 10.9962Z" fill="#4671C6"/>
<path d="M14.1558 2.75945L10.8795 15.7647C10.7709 16.1956 10.3545 16.4514 9.9493 16.3359L3.83586 14.5935C3.43073 14.478 3.19021 14.0351 3.29881 13.6041L6.57509 0.598966C6.68369 0.168055 7.10007 -0.0877782 7.5053 0.0277389L13.6187 1.77014C14.0239 1.88555 14.2643 2.32854 14.1558 2.75945Z" fill="#95E358"/>
<path d="M8.72726 9.81818C9.93224 9.81818 10.9091 8.84135 10.9091 7.63636C10.9091 6.43138 9.93224 5.45454 8.72726 5.45454C7.52227 5.45454 6.54544 6.43138 6.54544 7.63636C6.54544 8.84135 7.52227 9.81818 8.72726 9.81818Z" fill="#F6F7FB"/>
<path d="M18.7402 24H3.35385C2.70657 24 2.18182 23.4958 2.18182 22.8739V9.85334C2.18182 9.23144 2.70657 8.72727 3.35385 8.72727H18.7403C19.8377 8.72727 20.7273 9.58196 20.7273 10.6364V22.0909C20.7272 23.1452 19.8376 24 18.7402 24Z" fill="#FB9873"/>
<path d="M21.1818 18.5455H16.5682C15.2503 18.5455 14.1818 17.5686 14.1818 16.3636C14.1818 15.1587 15.2503 14.1818 16.5682 14.1818H21.1818C21.5333 14.1818 21.8182 14.4423 21.8182 14.7636V17.9636C21.8182 18.2849 21.5333 18.5455 21.1818 18.5455Z" fill="#E07B55"/>
<path d="M16.3636 17.4545C16.9661 17.4545 17.4545 16.9661 17.4545 16.3636C17.4545 15.7611 16.9661 15.2727 16.3636 15.2727C15.7611 15.2727 15.2727 15.7611 15.2727 16.3636C15.2727 16.9661 15.7611 17.4545 16.3636 17.4545Z" fill="#FB9873"/>
<path d="M5.14584 21.6283H4.44272C4.28737 21.6283 4.16147 21.5024 4.16147 21.3471C4.16147 21.1917 4.28737 21.0658 4.44272 21.0658H5.14584C5.30119 21.0658 5.42709 21.1917 5.42709 21.3471C5.42709 21.5024 5.30128 21.6283 5.14584 21.6283Z" fill="#E07B55"/>
<path d="M16.3958 21.6283H14.9896C14.8343 21.6283 14.7083 21.5024 14.7083 21.3471C14.7083 21.1917 14.8343 21.0658 14.9896 21.0658H16.3958C16.5512 21.0658 16.6771 21.1917 16.6771 21.3471C16.6771 21.5024 16.5513 21.6283 16.3958 21.6283ZM13.5833 21.6283H12.1771C12.0218 21.6283 11.8958 21.5024 11.8958 21.3471C11.8958 21.1917 12.0218 21.0658 12.1771 21.0658H13.5833C13.7387 21.0658 13.8646 21.1917 13.8646 21.3471C13.8646 21.5024 13.7388 21.6283 13.5833 21.6283ZM10.7708 21.6283H9.36459C9.20925 21.6283 9.08334 21.5024 9.08334 21.3471C9.08334 21.1917 9.20925 21.0658 9.36459 21.0658H10.7708C10.9262 21.0658 11.0521 21.1917 11.0521 21.3471C11.0521 21.5024 10.9263 21.6283 10.7708 21.6283ZM7.95834 21.6283H6.55209C6.39675 21.6283 6.27084 21.5024 6.27084 21.3471C6.27084 21.1917 6.39675 21.0658 6.55209 21.0658H7.95834C8.11369 21.0658 8.23959 21.1917 8.23959 21.3471C8.23959 21.5024 8.11378 21.6283 7.95834 21.6283Z" fill="#E07B55"/>
<path d="M18.5052 21.6283H17.8021C17.6467 21.6283 17.5208 21.5024 17.5208 21.3471C17.5208 21.1917 17.6467 21.0658 17.8021 21.0658H18.5052C18.6606 21.0658 18.7865 21.1917 18.7865 21.3471C18.7865 21.5024 18.6607 21.6283 18.5052 21.6283Z" fill="#E07B55"/>
<path d="M5.14584 10.6417H4.44272C4.28737 10.6417 4.16147 10.5157 4.16147 10.3604C4.16147 10.2051 4.28737 10.0792 4.44272 10.0792H5.14584C5.30119 10.0792 5.42709 10.2051 5.42709 10.3604C5.42709 10.5157 5.30128 10.6417 5.14584 10.6417Z" fill="#E07B55"/>
<path d="M16.3958 10.6417H14.9896C14.8343 10.6417 14.7083 10.5157 14.7083 10.3604C14.7083 10.2051 14.8343 10.0792 14.9896 10.0792H16.3958C16.5512 10.0792 16.6771 10.2051 16.6771 10.3604C16.6771 10.5157 16.5513 10.6417 16.3958 10.6417ZM13.5833 10.6417H12.1771C12.0218 10.6417 11.8958 10.5157 11.8958 10.3604C11.8958 10.2051 12.0218 10.0792 12.1771 10.0792H13.5833C13.7387 10.0792 13.8646 10.2051 13.8646 10.3604C13.8646 10.5157 13.7388 10.6417 13.5833 10.6417ZM10.7708 10.6417H9.36459C9.20925 10.6417 9.08334 10.5157 9.08334 10.3604C9.08334 10.2051 9.20925 10.0792 9.36459 10.0792H10.7708C10.9262 10.0792 11.0521 10.2051 11.0521 10.3604C11.0521 10.5157 10.9263 10.6417 10.7708 10.6417ZM7.95834 10.6417H6.55209C6.39675 10.6417 6.27084 10.5157 6.27084 10.3604C6.27084 10.2051 6.39675 10.0792 6.55209 10.0792H7.95834C8.11369 10.0792 8.23959 10.2051 8.23959 10.3604C8.23959 10.5157 8.11378 10.6417 7.95834 10.6417Z" fill="#E07B55"/>
<path d="M18.5052 10.6417H17.8021C17.6467 10.6417 17.5208 10.5157 17.5208 10.3604C17.5208 10.2051 17.6467 10.0792 17.8021 10.0792H18.5052C18.6606 10.0792 18.7865 10.2051 18.7865 10.3604C18.7865 10.5157 18.6607 10.6417 18.5052 10.6417Z" fill="#E07B55"/>
</svg>
